<svg width="87" height="137" viewBox="0 0 87 137" fill="none" xmlns="http://www.w3.org/2000/svg">
<g clip-path="url(#clip0_1633_1234)">
<path d="M66.0121 30.1506C62.5734 26.8961 58.4591 24.3785 53.7308 22.5977C49.0025 20.8169 43.9057 19.8958 38.6248 19.8958C33.3438 19.8958 28.247 20.8169 23.5187 22.5977C18.7904 24.3785 14.6762 26.8961 11.2374 30.1506C7.79864 33.4052 5.03532 37.3967 3.0089 41.9408C0.982484 46.4848 0 51.643 0 57.2924C0 62.9418 1.04389 68.1 3.0089 72.7055C5.03532 77.311 7.79864 81.3024 11.2374 84.6184C14.6762 87.9343 18.7904 90.5134 23.5187 92.417C28.247 94.2592 33.3438 95.2417 38.6248 95.2417C43.9057 95.2417 49.0025 94.3206 53.7308 92.417C58.4591 90.5748 62.5734 87.9343 66.0121 84.6184C69.4509 81.3024 72.2142 77.311 74.2406 72.7055C76.267 68.1 77.2495 62.8804 77.2495 57.2924C77.2495 51.7044 76.2056 46.5462 74.2406 41.9408C72.2142 37.3967 69.4509 33.4052 66.0121 30.1506ZM58.6433 65.7665C57.7836 68.5912 56.4941 71.1703 54.7133 73.4423C52.9939 75.7144 50.7219 77.5566 48.0814 78.9689C45.4409 80.3813 42.1864 81.1181 38.5634 81.1181C34.9404 81.1181 31.6858 80.3813 29.0453 78.9689C26.4048 77.5566 24.1942 75.653 22.4134 73.4423C20.694 71.2317 19.3431 68.6526 18.4834 65.7665C17.6237 62.9418 17.1939 60.0557 17.1939 57.2309C17.1939 54.4062 17.6237 51.5202 18.4834 48.7569C19.3431 45.9936 20.694 43.4145 22.4134 41.1424C24.1328 38.8704 26.4048 37.0896 29.0453 35.6772C31.6858 34.3263 34.879 33.5894 38.5634 33.5894C42.2478 33.5894 45.4409 34.2649 48.0814 35.6772C50.7219 37.0282 52.9325 38.8704 54.7133 41.1424C56.4327 43.4145 57.7836 45.9322 58.6433 48.6955C59.503 51.4588 59.9329 54.3448 59.9329 57.1696C59.9329 59.9943 59.503 62.8804 58.6433 65.7051V65.7665Z" fill="white"/>
<path d="M68.3452 98.0049C64.7222 98.0049 61.529 100.523 60.2395 104.391C57.292 113.234 49.0635 119.19 39.7297 119.19C30.3959 119.19 22.1674 113.234 19.2199 104.391C17.9303 100.523 14.7372 98.0049 10.7458 98.0049C6.75433 98.0049 5.58761 99.233 3.99104 101.382C2.39446 103.531 1.90319 106.172 2.70147 108.69C7.5526 124.901 22.8429 136.2 39.7911 136.2C56.7393 136.2 71.9682 124.901 76.8807 108.69C77.6176 106.172 77.1878 103.531 75.5912 101.382C73.9946 99.233 71.5383 98.0049 68.468 98.0049H68.3452Z" fill="white"/>
<path d="M83.0218 3.13172C80.8725 1.0439 78.1706 0 75.0389 0C71.9072 0 69.2667 1.10533 67.2403 3.31597C65.2138 5.52661 64.1699 8.10568 64.1699 11.0532C64.1699 14.0007 65.2138 16.6412 67.2403 18.7904C69.3281 21.0011 71.8458 22.1064 75.0389 22.1064C78.232 22.1064 80.8725 21.0625 83.0218 18.9747C85.171 16.8868 86.2763 14.2463 86.2763 11.0532C86.2763 7.86005 85.2324 5.28096 83.0218 3.13172Z" fill="#23B53D"/>
</g>
<defs>
<clipPath id="clip0_1633_1234">
<rect width="87" height="137" fill="white"/>
</clipPath>
</defs>
</svg>
