<svg width="115" height="29" viewBox="0 0 115 29" fill="none" xmlns="http://www.w3.org/2000/svg">
<g clip-path="url(#clip0_1633_1238)">
<path d="M46.2357 19.3904C45.2574 19.3904 44.4616 18.5947 44.4616 17.6164V11.0312C44.4616 9.23527 43.0015 7.76785 41.2056 7.76785C39.4096 7.76785 37.9714 9.21337 37.9495 10.9874V17.6164C37.9495 18.5947 37.1537 19.3904 36.1754 19.3904C35.1971 19.3904 34.4014 18.5947 34.4014 17.6164V11.0312C34.4014 7.2787 37.453 4.22705 41.2056 4.22705C44.9581 4.22705 43.1694 4.43147 44.1404 4.8403C46.4912 5.83319 48.017 8.25699 48.017 11.0166V17.6164C48.017 18.5947 47.2213 19.3904 46.243 19.3904H46.2357Z" fill="#23B53D"/>
<path d="M103.932 19.3904C103.348 19.3904 102.72 19.3101 102.078 19.1641C101.442 19.0108 100.844 18.7552 100.311 18.4048C99.7776 18.0544 99.3322 17.5871 98.9818 17.0104C98.6314 16.4409 98.4561 15.7255 98.4561 14.8786C98.4561 14.0317 98.7628 12.922 99.376 12.2869C99.9966 11.6371 100.8 11.1407 101.771 10.7976C102.742 10.4471 103.844 10.2208 105.049 10.104C106.188 9.9945 106.83 9.94339 107.845 9.93609H107.947V9.83389C107.918 7.89922 106.911 7.7386 105.779 7.7386C104.647 7.7386 104.881 7.75321 104.684 7.75321H102.633C102.143 7.75321 101.669 7.53418 101.355 7.16185C101.034 6.78952 100.895 6.29308 100.968 5.79664C101.092 4.98627 101.859 4.37302 102.749 4.37302C103.961 4.37302 104.969 4.36572 105.399 4.36572C109.612 4.36572 111.488 6.31499 111.488 10.6735V11.3743C111.474 11.7028 111.459 12.0752 111.452 12.4475C111.43 13.2579 111.401 14.0244 111.43 14.2508C111.488 14.6523 111.59 15.0319 111.744 15.3677C111.904 15.7109 112.131 15.9956 112.43 16.2146C112.707 16.419 113.087 16.5212 113.547 16.5358C114.372 16.5358 115 17.1637 115 17.9376C115 18.7114 114.372 19.3393 113.598 19.3393H112.357L112.24 19.3247C111.86 19.3101 110.532 19.1641 109.4 17.9084C108.32 16.7111 107.823 14.8786 107.962 12.6154V12.5059H107.225C106.772 12.5059 106.604 12.5205 106.268 12.5497L105.852 12.5862C105.151 12.6373 104.545 12.7541 103.998 12.9293C102.173 13.528 101.975 14.4479 101.975 14.8202C101.975 15.1925 102.063 15.5065 102.224 15.762C102.384 16.0102 102.603 16.2146 102.866 16.3679C103.122 16.514 103.414 16.6235 103.735 16.6892C104.056 16.7549 104.348 16.7841 104.626 16.7841C105.115 16.7841 105.524 16.733 105.903 16.6454C105.998 16.6235 106.086 16.6162 106.181 16.6162C106.655 16.6162 107.079 16.8863 107.29 17.317C107.48 17.704 107.48 18.1201 107.305 18.4851C107.13 18.8428 106.816 19.0984 106.443 19.1787C105.582 19.3685 104.699 19.3977 103.947 19.3977L103.932 19.3904Z" fill="white"/>
<path d="M7.99469 19.3904C6.89959 19.3904 5.8483 19.1933 4.87002 18.8064C3.89174 18.4194 3.03757 17.8792 2.32941 17.2002C1.62125 16.5213 1.0445 15.6963 0.635665 14.7399C0.21953 13.7836 0.0078125 12.7177 0.0078125 11.5569C0.0078125 10.3961 0.21953 9.33018 0.635665 8.3884C1.0518 7.44662 1.62125 6.62895 2.32941 5.95729C3.03757 5.28564 3.89174 4.76729 4.87002 4.40226C5.8483 4.03723 6.89959 3.84741 7.99469 3.84741C9.08978 3.84741 10.1484 4.02993 11.1193 4.40226C12.0246 4.73809 12.835 5.23453 13.5359 5.86238L13.5651 5.89158C13.8644 6.19821 14.0323 6.59974 14.0323 7.02318C14.0323 7.92116 13.3022 8.65122 12.4043 8.65122C11.5063 8.65122 11.5136 8.4468 11.1924 8.08177C10.7981 7.59993 10.4769 7.38091 9.95855 7.11079C9.41101 6.82606 8.74665 6.68005 7.98738 6.68005C7.22812 6.68005 6.57107 6.82606 6.02352 7.11079C5.47597 7.39551 5.01604 7.77515 4.6583 8.23509C4.30057 8.70232 4.03045 9.22797 3.84794 9.80472C3.67272 10.3815 3.57781 10.9655 3.57781 11.5569C3.57781 12.1482 3.66542 12.7396 3.84794 13.3236C4.02315 13.9077 4.29327 14.4406 4.6583 14.9079C5.01604 15.3751 5.47597 15.7547 6.02352 16.054C6.57107 16.3534 7.23542 16.4994 7.99469 16.4994C8.75395 16.4994 9.41101 16.3461 9.96585 16.054C10.4623 15.7839 10.8711 15.4481 11.207 15.0393C11.5428 14.7034 11.9662 14.5136 12.4116 14.5136C13.3095 14.5136 14.0396 15.2437 14.0396 16.1416C14.0396 17.0396 13.8571 16.9958 13.5359 17.3097L13.4628 17.3755C12.7839 17.9887 11.9954 18.4706 11.1193 18.8137C10.1411 19.2006 9.08978 19.3977 7.99469 19.3977V19.3904Z" fill="#23B53D"/>
<path d="M64.2898 6.22753C63.5817 5.55587 62.7275 5.03023 61.7492 4.6652C60.771 4.30017 59.7197 4.11035 58.6246 4.11035C57.5295 4.11035 56.4782 4.29287 55.4999 4.6652C54.5289 5.03023 53.6748 5.55587 52.9593 6.22023C52.2511 6.89188 51.6744 7.70955 51.2656 8.65133C50.8494 9.59311 50.6377 10.659 50.6377 11.8198C50.6377 12.9806 50.8494 14.0538 51.2656 15.0029C51.6817 15.9519 52.2511 16.7842 52.9593 17.4632C53.6675 18.1421 54.5216 18.6824 55.4999 19.0693C56.4782 19.4562 57.5295 19.6534 58.6246 19.6534C59.7197 19.6534 60.771 19.4562 61.7492 19.0693C62.7275 18.6824 63.5817 18.1421 64.2898 17.4632C64.998 16.7842 65.5675 15.9592 65.9836 15.0029C66.3997 14.0465 66.6114 12.9733 66.6114 11.8198C66.6114 10.6663 66.3997 9.60041 65.9836 8.65133C65.5675 7.70955 64.998 6.89188 64.2898 6.22023V6.22753ZM62.764 13.5939C62.5888 14.1779 62.3114 14.7181 61.9537 15.1781C61.5959 15.638 61.136 16.025 60.5884 16.317C60.0409 16.6163 59.3765 16.7623 58.6173 16.7623C57.858 16.7623 57.1937 16.609 56.6461 16.317C56.0986 16.025 55.6386 15.638 55.2809 15.1781C54.9232 14.7181 54.653 14.1852 54.4705 13.5939C54.2953 13.0098 54.2004 12.4184 54.2004 11.8271C54.2004 11.2357 54.288 10.6517 54.4705 10.075C54.653 9.4982 54.9232 8.97256 55.2809 8.50532C55.6386 8.04538 56.0986 7.65845 56.6461 7.38102C57.1937 7.0963 57.858 6.95029 58.6173 6.95029C59.3765 6.95029 60.0336 7.0963 60.5884 7.38102C61.136 7.66575 61.5959 8.04538 61.9537 8.51262C62.3114 8.97986 62.5815 9.5055 62.764 10.0823C62.9392 10.659 63.0341 11.243 63.0341 11.8344C63.0341 12.4257 62.9465 13.0171 62.764 13.6012V13.5939Z" fill="white"/>
<path d="M64.7722 20.252C64.0276 20.252 63.3705 20.7703 63.1004 21.5661C62.4944 23.3985 60.7861 24.625 58.8587 24.625C56.9314 24.625 55.223 23.3985 54.6171 21.5661C54.3542 20.763 53.6972 20.252 52.8649 20.252C52.0326 20.252 51.799 20.5075 51.4705 20.9528C51.142 21.3908 51.0471 21.9457 51.2004 22.464C52.2079 25.815 55.3544 28.1512 58.8587 28.1512C62.363 28.1512 65.5096 25.815 66.5171 22.464C66.6704 21.9457 66.5755 21.3981 66.2469 20.9528C65.9111 20.5075 65.4074 20.252 64.7722 20.252Z" fill="white"/>
<path d="M67.7945 0.649757C67.3492 0.21902 66.7943 0 66.1446 0C65.4948 0 64.9546 0.226323 64.5311 0.678961C64.1077 1.1316 63.8887 1.67184 63.8887 2.2851C63.8887 2.89835 64.1004 3.43859 64.5311 3.89123C64.9546 4.35117 65.4875 4.57019 66.1446 4.57019C66.8016 4.57019 67.3492 4.35117 67.7945 3.92043C68.2399 3.4897 68.4589 2.94215 68.4589 2.2851C68.4589 1.62804 68.2399 1.08779 67.7945 0.649757Z" fill="#23B53D"/>
<path d="M31.3645 8.38837C30.9483 7.43929 30.3716 6.62892 29.6707 5.95727C28.9626 5.28561 28.1084 4.75996 27.1301 4.39493C26.1518 4.0299 25.1005 3.84009 24.0054 3.84009C22.9103 3.84009 21.8591 4.0226 20.8808 4.39493C19.9098 4.75996 19.0556 5.28561 18.3402 5.95727C17.632 6.62162 17.0626 7.43929 16.6464 8.38837C16.2303 9.33015 16.0186 10.396 16.0186 11.5568C16.0186 12.7176 16.2303 13.7908 16.6464 14.7399C17.0626 15.6963 17.632 16.5213 18.3475 17.2002C19.0556 17.8792 19.9098 18.4194 20.8881 18.8063C21.8664 19.1933 22.9176 19.3904 24.0127 19.3904C25.1078 19.3904 26.1591 19.1933 27.1374 18.8063C27.1666 18.7917 27.1885 18.7771 27.2177 18.7698C24.3559 18.0763 22.2022 16.8352 20.9027 15.1341C20.8297 15.0538 20.7421 14.9881 20.6837 14.9005C20.3259 14.4406 20.0558 13.9076 19.8806 13.3163C19.7054 12.7322 19.6105 12.1336 19.6105 11.5495C19.6105 10.9655 19.6981 10.3741 19.8806 9.79739C20.0558 9.22064 20.3332 8.695 20.6837 8.22776C21.0414 7.76052 21.5013 7.38088 22.0489 7.09616C22.5964 6.81144 23.2608 6.66543 24.02 6.66543C24.7793 6.66543 25.4364 6.81144 25.9912 7.09616C26.5388 7.38088 26.9987 7.76052 27.3564 8.22776C27.7142 8.6877 27.9843 9.21334 28.1668 9.79739C28.342 10.3741 28.4369 10.9655 28.4369 11.5495C28.4369 12.1336 28.3493 12.7249 28.1668 13.3163C27.9843 13.9076 27.7142 14.4406 27.3564 14.9005C26.9987 15.3678 26.5388 15.7474 25.9912 16.0394C25.6846 16.2 25.3415 16.3095 24.9691 16.3825C26.1445 16.9374 27.5535 17.3389 29.1743 17.5871C29.3422 17.4557 29.5247 17.3389 29.678 17.1929C30.3862 16.514 30.9556 15.689 31.3791 14.7326C31.7952 13.7762 32.0069 12.7103 32.0069 11.5495C32.0069 10.3887 31.7952 9.33015 31.3791 8.38107L31.3645 8.38837Z" fill="#23B53D"/>
<path d="M84.177 8.38837C83.7608 7.43929 83.1841 6.62892 82.4832 5.95727C81.7751 5.28561 80.9209 4.75996 79.9426 4.39493C78.9643 4.0299 77.913 3.84009 76.8179 3.84009C75.7228 3.84009 74.6716 4.0226 73.6933 4.39493C72.7223 4.75996 71.8681 5.28561 71.1527 5.95727C70.4445 6.62162 69.8751 7.43929 69.4589 8.38837C69.0428 9.33015 68.8311 10.396 68.8311 11.5568C68.8311 12.7176 69.0428 13.7908 69.4589 14.7399C69.8751 15.6963 70.4445 16.5213 71.16 17.2002C71.8681 17.8792 72.7223 18.4194 73.7006 18.8063C74.6789 19.1933 75.7301 19.3904 76.8252 19.3904C77.9203 19.3904 78.9716 19.1933 79.9499 18.8063C79.9791 18.7917 80.001 18.7771 80.0302 18.7698C77.1684 18.0763 75.0147 16.8352 73.7152 15.1341C73.6422 15.0538 73.5546 14.9881 73.4962 14.9005C73.1384 14.4406 72.8683 13.9076 72.6931 13.3163C72.5179 12.7322 72.423 12.1336 72.423 11.5495C72.423 10.9655 72.5106 10.3741 72.6931 9.79739C72.8683 9.22064 73.1457 8.695 73.4962 8.22776C73.8539 7.76052 74.3138 7.38088 74.8614 7.09616C75.4089 6.81144 76.0733 6.66543 76.8325 6.66543C77.5918 6.66543 78.2489 6.81144 78.8037 7.09616C79.3513 7.38088 79.8112 7.76052 80.1689 8.22776C80.5266 8.6877 80.7968 9.21334 80.9793 9.79739C81.1545 10.3741 81.2494 10.9655 81.2494 11.5495C81.2494 12.1336 81.1618 12.7249 80.9793 13.3163C80.7968 13.9076 80.5266 14.4406 80.1689 14.9005C79.8112 15.3678 79.3513 15.7474 78.8037 16.0394C78.4971 16.2 78.154 16.3095 77.7816 16.3825C78.957 16.9374 80.366 17.3389 81.9868 17.5871C82.1547 17.4557 82.3372 17.3389 82.4905 17.1929C83.1987 16.514 83.7681 15.689 84.1916 14.7326C84.6077 13.7762 84.8194 12.7103 84.8194 11.5495C84.8194 10.3887 84.6077 9.33015 84.1916 8.38107L84.177 8.38837Z" fill="white"/>
<path d="M97.8582 5.32212C97.8582 5.32212 96.347 4.21973 94.1714 4.21973C91.9958 4.21973 93.9158 4.21972 93.7844 4.23432C90.2436 4.43144 87.3672 7.62911 87.3672 11.3597V17.6091C87.3672 18.5873 88.163 19.3831 89.1412 19.3831C90.1195 19.3831 90.9153 18.5873 90.9153 17.6091V11.1261V11.0239C90.9153 9.22795 92.3754 7.76053 94.1787 7.76053C95.9819 7.76053 96.1644 8.41758 96.1644 8.41028C96.4054 8.52709 96.6682 8.6001 96.9529 8.6001C97.9312 8.6001 98.727 7.80433 98.727 6.82604C98.727 5.84776 98.3838 5.62875 97.8728 5.31482L97.8582 5.32212Z" fill="white"/>
</g>
<defs>
<clipPath id="clip0_1633_1238">
<rect width="115" height="29" fill="white"/>
</clipPath>
</defs>
</svg>
